<?xml version="1.0" encoding="UTF-8" standalone="no"?>
<!-- Created with Inkscape (http://www.inkscape.org/) -->

<svg
   width="210mm"
   height="297mm"
   viewBox="0 0 210 297"
   version="1.1"
   id="svg5"
   inkscape:version="1.1.1 (3bf5ae0d25, 2021-09-20)"
   sodipodi:docname="fav.svg"
   xmlns:inkscape="http://www.inkscape.org/namespaces/inkscape"
   xmlns:sodipodi="http://sodipodi.sourceforge.net/DTD/sodipodi-0.dtd"
   xmlns="http://www.w3.org/2000/svg"
   xmlns:svg="http://www.w3.org/2000/svg">
  <sodipodi:namedview
     id="namedview7"
     pagecolor="#ffffff"
     bordercolor="#666666"
     borderopacity="1.0"
     inkscape:pageshadow="2"
     inkscape:pageopacity="0.0"
     inkscape:pagecheckerboard="0"
     inkscape:document-units="mm"
     showgrid="false"
     inkscape:zoom="0.32026164"
     inkscape:cx="1514.3868"
     inkscape:cy="579.21392"
     inkscape:window-width="1280"
     inkscape:window-height="961"
     inkscape:window-x="-8"
     inkscape:window-y="-8"
     inkscape:window-maximized="1"
     inkscape:current-layer="layer1" />
  <defs
     id="defs2">
    <rect
       x="135.82644"
       y="207.64272"
       width="524.57109"
       height="279.45901"
       id="rect25413" />
    <rect
       x="135.82645"
       y="207.64272"
       width="524.57111"
       height="279.45901"
       id="rect25413-2" />
  </defs>
  <g
     inkscape:label="Camada 1"
     inkscape:groupmode="layer"
     id="layer1">
    <rect
       style="fill:none;fill-opacity:1;stroke:#0d1d1f;stroke-width:0.001;stroke-miterlimit:4;stroke-dasharray:none;stroke-opacity:1"
       id="rect20900"
       width="203.23227"
       height="203.23227"
       x="378.37555"
       y="3.3045886"
       inkscape:export-filename="C:\Users\Pichau\Desktop\programas\OuterWildsCustomShips\CustomShipLib\pictures\fav.webp"
       inkscape:export-xdpi="96"
       inkscape:export-ydpi="96" />
    <path
       id="path8692"
       style="mix-blend-mode:normal;fill:#b1a23d;fill-opacity:1;stroke:none;stroke-width:8.64651;stroke-linecap:butt;stroke-linejoin:miter;stroke-miterlimit:4;stroke-dasharray:none;stroke-opacity:1"
       d="m 469.5286,136.80702 20.96668,7.62421 c 4.1429,19.23096 -144.57625,115.40162 -252.2894,111.13028 -112.98442,-4.48036 -114.04211,-66.56458 -114.04211,-66.56458 l 25.69222,-0.50544 C 309.82127,266.2925 469.5286,136.80702 469.5286,136.80702 Z"
       sodipodi:nodetypes="ccsccc" />
    <path
       id="path8692-3"
       style="mix-blend-mode:normal;fill:#b17f3d;fill-opacity:1;stroke:none;stroke-width:8.64645;stroke-linecap:butt;stroke-linejoin:miter;stroke-miterlimit:4;stroke-dasharray:none;stroke-opacity:1"
       d="m 478.62644,140.17634 c 0,0 -209.89677,149.81859 -328.77045,48.31515 h -9.43454 c 108.638,127.67777 350.07424,-44.06002 350.07424,-44.06002 z m 11.86925,4.25513 c -292.08717,-118.236861 -146.04359,-59.118431 0,0 z"
       sodipodi:nodetypes="ccccccc" />
    <path
       id="path8692-6"
       style="mix-blend-mode:normal;fill:#b15d3d;fill-opacity:1;stroke:none;stroke-width:8.64647;stroke-linecap:butt;stroke-linejoin:miter;stroke-miterlimit:4;stroke-dasharray:none;stroke-opacity:1"
       d="m 486.03356,142.57953 c 0,0 -240.40524,164.47388 -345.61211,45.91196 l -16.25677,0.50584 42.53895,39.25439 c 127.32252,72.39648 323.79206,-83.82025 323.79206,-83.82025 z m -12.64959,31.88651 c -1.66316,2.1042 -3.4339,4.28241 -5.30618,6.52527 1.87228,-2.24286 3.64302,-4.42107 5.30618,-6.52527 z m -24.74033,28.19857 c -2.42908,2.54484 -4.94237,5.1251 -7.53354,7.73253 2.59117,-2.60743 5.10446,-5.18769 7.53354,-7.73253 z m -7.53354,7.73253 c -2.59117,2.60743 -5.26077,5.24167 -8.00232,7.89268 2.74155,-2.65101 5.41115,-5.28525 8.00232,-7.89268 z m -189.39771,58.61805 c -1.73546,0.16804 -3.46366,0.2992 -5.18311,0.39117 1.71945,-0.092 3.44765,-0.22317 5.18311,-0.39117 z"
       sodipodi:nodetypes="cccccccccccccccccc" />
    <path
       id="path8692-8"
       style="mix-blend-mode:normal;fill:#b1483d;fill-opacity:1;stroke:none;stroke-width:8.64651;stroke-linecap:butt;stroke-linejoin:miter;stroke-miterlimit:4;stroke-dasharray:none;stroke-opacity:1"
       d="m 490.49633,144.43133 v 0 c 4.1429,19.23096 -143.95715,117.15035 -251.67032,112.87901 -112.9844,-4.48037 -114.66223,-68.31341 -114.66223,-68.31341 0,0 22.00443,19.98047 44.86204,37.93854 11.21101,8.80794 93.31717,19.89533 171.69987,-3.63296 78.3827,-23.52831 149.77064,-78.87118 149.77064,-78.87118 z"
       sodipodi:nodetypes="ccscssc" />
    <path
       style="mix-blend-mode:normal;fill:#b1b1b1;fill-opacity:1;stroke:none;stroke-width:8.64651;stroke-linecap:butt;stroke-linejoin:miter;stroke-miterlimit:4;stroke-dasharray:none;stroke-opacity:1"
       d="m 505.08762,143.42063 16.77239,43.07415 -21.22725,8.51859 -22.0063,-54.83703 -54.83702,22.00634 -8.5186,-21.22723 42.71924,-17.65688 C 471.98795,59.660919 535.81544,6.3201994 535.81544,6.3201994 c 0,0 5.5794,82.9942596 -30.72782,137.1004306 z"
       id="path2090-7-4"
       sodipodi:nodetypes="ccccccccc" />
    <path
       style="mix-blend-mode:normal;fill:#6b6b6b;fill-opacity:1;stroke:none;stroke-width:8.64651;stroke-linecap:butt;stroke-linejoin:miter;stroke-miterlimit:4;stroke-dasharray:none;stroke-opacity:1"
       d="m 505.08762,143.42063 16.77239,43.07415 -21.22725,8.51859 -22.0063,-54.83703 c -67.57086,31.45426 0,0 0,0 L 535.81544,6.3201994 c 0,0 5.5794,82.9942596 -30.72782,137.1004306 z"
       id="path2090-7-7-1"
       sodipodi:nodetypes="ccccccc" />
    <path
       style="mix-blend-mode:normal;fill:#5a5a5a;fill-opacity:1;stroke:none;stroke-width:8.64651;stroke-linecap:butt;stroke-linejoin:miter;stroke-miterlimit:4;stroke-dasharray:none;stroke-opacity:1"
       d="m 505.08762,143.42063 16.77239,43.07415 -12.46663,5.14913 c 0,0 -12.40113,-31.93766 -18.89705,-47.21258 31.33753,-43.90074 45.31911,-138.1111506 45.31911,-138.1111506 0,0 5.5794,82.9942796 -30.72782,137.1004506 z"
       id="path2090-7-7-5-6"
       sodipodi:nodetypes="cccccc" />
    <path
       style="mix-blend-mode:normal;fill:#bebebe;fill-opacity:1;stroke:none;stroke-width:8.64651;stroke-linecap:butt;stroke-linejoin:miter;stroke-miterlimit:4;stroke-dasharray:none;stroke-opacity:1"
       d="m 471.88749,128.72013 -52.14142,23.01719 -4.47523,-10.78187 42.71924,-17.65688 C 471.98795,59.660919 535.81544,6.3202094 535.81544,6.3202094 492.43404,47.959799 471.88749,128.72013 471.88749,128.72013 Z"
       id="path2090-7-6-3"
       sodipodi:nodetypes="cccccc" />
  </g>
</svg>
