# Blender v3.0.0 OBJ File: '3dModels.blend'
# www.blender.org
mtllib tabledApoio.mtl
v 7.139651 5.740244 -25.171410
v 7.225569 6.222003 -25.435949
v 7.397405 6.222003 -25.965031
v 7.483323 5.740244 -26.229572
v 7.397405 5.258486 -25.965031
v 7.225569 5.258486 -25.435949
v 8.726895 5.740244 -24.655901
v 8.812813 6.222002 -24.920441
v 8.984650 6.222002 -25.449524
v 9.070567 5.740244 -25.714064
v 8.526451 5.258486 -25.598337
v 8.354615 5.258486 -25.069256
v 9.271011 5.258485 -24.771627
v 9.442847 5.258485 -25.300709
v 8.726894 0.589030 -24.655901
v 9.271010 0.589030 -24.771627
v 9.442846 0.589030 -25.300709
v 9.070567 0.589030 -25.714064
v 8.526451 0.589030 -25.598337
v 8.354614 0.589030 -25.069256
v 10.314139 5.740244 -24.140392
v 10.400058 6.222002 -24.404934
v 10.571894 6.222002 -24.934015
v 10.657812 5.740244 -25.198555
v 10.571894 5.258485 -24.934015
v 10.400058 5.258485 -24.404934
vn -0.3065 0.1245 0.9437
vn -0.8249 0.0000 0.5652
vn -0.7025 -0.6862 0.1884
vn -0.6899 -0.4922 0.5307
vn -0.1544 0.8660 0.4755
vn -0.7025 0.6862 0.1884
vn 0.1544 0.8660 -0.4755
vn -0.4577 0.6862 -0.5652
vn 0.3065 0.1245 -0.9437
vn -0.3354 0.0000 -0.9421
vn -0.2464 -0.4922 -0.8348
vn -0.4577 -0.6862 -0.5652
vn -0.3089 0.0000 0.9511
vn -0.9781 0.0000 0.2080
vn 0.6692 0.0000 0.7430
vn 0.2464 -0.4922 0.8348
vn 0.9781 0.0000 -0.2080
vn 0.6899 -0.4922 -0.5307
vn 0.3089 0.0000 -0.9511
vn -0.6692 0.0000 -0.7430
vn 0.3354 0.0000 0.9421
vn 0.4577 -0.6862 0.5652
vn 0.4577 0.6862 0.5652
vn 0.7025 0.6862 -0.1884
vn 0.8249 0.0000 -0.5652
vn 0.7025 -0.6862 -0.1884
usemtl None
s 1
f 7//1 1//2 6//3 12//4
f 1//2 7//1 8//5 2//6
f 2//6 8//5 9//7 3//8
f 3//8 9//7 10//9 4//10
f 4//10 10//9 11//11 5//12
f 5//12 11//11 12//4 6//3
f 15//13 7//1 12//4 20//14
f 7//1 15//13 16//15 13//16
f 13//16 16//15 17//17 14//18
f 14//18 17//17 18//19 10//9
f 10//9 18//19 19//20 11//11
f 11//11 19//20 20//14 12//4
f 21//21 7//1 13//16 26//22
f 7//1 21//21 22//23 8//5
f 8//5 22//23 23//24 9//7
f 9//7 23//24 24//25 10//9
f 10//9 24//25 25//26 14//18
f 14//18 25//26 26//22 13//16
f 21//21 26//22 23//24 22//23
f 23//24 26//22 25//26 24//25
f 1//2 2//6 3//8 6//3
f 3//8 4//10 5//12 6//3
