# Blender v3.0.0 OBJ File: '3dModels.blend'
# www.blender.org
mtllib base.mtl
v 0.000000 1.561771 -26.125488
v 0.000000 2.869070 -26.125488
v 15.356176 1.561771 -21.135963
v 15.356176 2.869070 -21.135963
v 24.846817 1.561771 -8.073218
v 24.846817 2.869070 -8.073218
v 24.846815 1.561771 8.073220
v 24.846815 2.869070 8.073220
v 15.356174 1.561771 21.135963
v 15.356174 2.869070 21.135963
v -0.000002 1.561771 26.125488
v -0.000002 2.869070 26.125488
v -15.356179 1.561771 21.135962
v -15.356179 2.869070 21.135962
v -24.846815 1.561771 8.073222
v -24.846815 2.869070 8.073222
v -24.846815 1.561771 -8.073223
v -24.846815 2.869070 -8.073223
v -15.356177 1.561771 -21.135962
v -15.356177 2.869070 -21.135962
vt 0.000088 0.006365
vt 0.008133 0.000088
vt 0.085659 0.099444
vt 0.077614 0.105721
vt 0.163186 0.198800
vt 0.155141 0.205077
vt 0.240713 0.298156
vt 0.232669 0.304433
vt 0.318240 0.397512
vt 0.310196 0.403789
vt 0.395766 0.496866
vt 0.387722 0.503143
vt 0.473293 0.596220
vt 0.465249 0.602498
vt 0.550820 0.695576
vt 0.542776 0.701852
vt 0.628346 0.794929
vt 0.620302 0.801206
vt 0.701548 0.258263
vt 0.779075 0.357618
vt 0.783397 0.483566
vt 0.712862 0.588001
vt 0.594413 0.631031
vt 0.391445 0.370917
vt 0.461980 0.266483
vt 0.580429 0.223452
vt 0.705872 0.894283
vt 0.697828 0.900559
vt 0.783397 0.993635
vt 0.775352 0.999912
vt 0.159467 0.841101
vt 0.081940 0.741746
vt 0.077619 0.615797
vt 0.148154 0.511363
vt 0.266603 0.468332
vt 0.469570 0.728446
vt 0.399035 0.832881
vt 0.280586 0.875911
vn 0.3090 0.0000 -0.9511
vn 0.8090 0.0000 -0.5878
vn 1.0000 0.0000 0.0000
vn 0.8090 0.0000 0.5878
vn 0.3090 0.0000 0.9511
vn -0.3090 0.0000 0.9511
vn -0.8090 0.0000 0.5878
vn -1.0000 0.0000 0.0000
vn 0.0000 1.0000 0.0000
vn -0.8090 0.0000 -0.5878
vn -0.3090 0.0000 -0.9511
vn 0.0000 -1.0000 -0.0000
usemtl None
s off
f 1/1/1 2/2/1 4/3/1 3/4/1
f 3/4/2 4/3/2 6/5/2 5/6/2
f 5/6/3 6/5/3 8/7/3 7/8/3
f 7/8/4 8/7/4 10/9/4 9/10/4
f 9/10/5 10/9/5 12/11/5 11/12/5
f 11/12/6 12/11/6 14/13/6 13/14/6
f 13/14/7 14/13/7 16/15/7 15/16/7
f 15/16/8 16/15/8 18/17/8 17/18/8
f 4/19/9 2/20/9 20/21/9 18/22/9 16/23/9 14/13/9 12/11/9 10/24/9 8/25/9 6/26/9
f 17/18/10 18/17/10 20/27/10 19/28/10
f 19/28/11 20/27/11 2/29/11 1/30/11
f 1/31/12 3/32/12 5/33/12 7/34/12 9/35/12 11/12/12 13/14/12 15/36/12 17/37/12 19/38/12
