# Blender v3.0.0 OBJ File: '3dModels.blend'
# www.blender.org
mtllib tablet.mtl
v 6.585995 5.573167 -25.554758
v 6.636208 5.559526 -25.530319
v 6.688087 5.555407 -25.511013
v 10.879072 5.555407 -24.149857
v 10.932396 5.559526 -24.134995
v 6.561893 5.601170 -25.542353
v 6.617372 5.589870 -25.503227
v 6.677288 5.586554 -25.477760
v 10.868273 5.586554 -24.116604
v 10.931719 5.589870 -24.102007
v 6.552767 5.631234 -25.532927
v 6.204864 9.706234 -24.461739
v 6.609628 5.624467 -25.488718
v 6.261725 9.699468 -24.417528
v 6.324009 9.697554 -24.390018
v 6.671911 5.622553 -25.461206
v 10.862896 5.622553 -24.100052
v 10.514994 9.697554 -23.028862
v 10.929459 5.624467 -24.085714
v 10.581556 9.699468 -23.014526
v 6.208704 9.738083 -24.454889
v 6.263271 9.737471 -24.412954
v 6.322911 9.737382 -24.386639
v 10.513896 9.737382 -23.025482
v 10.577618 9.737471 -23.011734
v 10.987386 5.573167 -24.125265
v 11.016019 5.571036 -24.151619
v 11.031343 5.576364 -24.180130
v 11.213531 5.739377 -24.741087
v 11.217333 5.751161 -24.771463
v 10.999600 5.601170 -24.101067
v 11.047889 5.605859 -24.125103
v 11.069707 5.614278 -24.156651
v 11.251896 5.777290 -24.717609
v 11.252504 5.788937 -24.755110
v 11.001446 5.631234 -24.088078
v 10.653543 9.706234 -23.016888
v 11.054758 5.641713 -24.110626
v 10.706856 9.716713 -23.039436
v 10.730335 9.727192 -23.071674
v 11.078238 5.652192 -24.142862
v 11.260427 5.815205 -24.703821
v 10.912525 9.890204 -23.632633
v 11.260370 5.825683 -24.743704
v 10.912468 9.900683 -23.672514
v 10.646412 9.738083 -23.013603
v 10.693788 9.753459 -23.034828
v 10.715330 9.765106 -23.065529
v 10.897520 9.928119 -23.626488
v 10.898403 9.936538 -23.664837
v 11.207825 5.770403 -24.803995
v 11.159436 5.762671 -24.834051
v 11.108108 5.760334 -24.855055
v 6.917123 5.760334 -26.216209
v 6.863248 5.762671 -26.229376
v 11.226641 5.804314 -24.800123
v 11.172073 5.804926 -24.842058
v 11.112433 5.805015 -24.868374
v 6.921449 5.805015 -26.229530
v 6.857727 5.804926 -26.243279
v 11.230480 5.836162 -24.793274
v 10.882578 9.911162 -23.722086
v 11.173620 5.842929 -24.837484
v 10.825717 9.917929 -23.766294
v 10.701224 9.850828 -23.834064
v 11.037343 5.913858 -24.868971
v 6.982560 5.913858 -26.185890
v 6.646441 9.850828 -25.150986
v 6.853788 5.842929 -26.240486
v 6.505886 9.917929 -25.169298
v 10.873452 9.941227 -23.712660
v 10.817972 9.952526 -23.751785
v 10.758057 9.955843 -23.777252
v 6.567072 9.955843 -25.138409
v 6.503626 9.952526 -25.153006
v 6.806434 5.770403 -26.233486
v 6.779625 5.751161 -26.212749
v 6.764853 5.739377 -26.185938
v 6.582664 5.576364 -25.624979
v 6.578311 5.571036 -25.592907
v 6.788933 5.804314 -26.241409
v 6.741557 5.788937 -26.220184
v 6.720014 5.777290 -26.189484
v 6.537825 5.614278 -25.628525
v 6.536942 5.605859 -25.590176
v 6.781802 5.836162 -26.238125
v 6.433899 9.911162 -25.166935
v 6.728489 5.825683 -26.215576
v 6.380586 9.900683 -25.144386
v 6.357106 9.890204 -25.112150
v 6.705009 5.815205 -26.183338
v 6.522820 5.652192 -25.622379
v 6.174917 9.727192 -24.551191
v 6.522877 5.641713 -25.582499
v 6.174974 9.716713 -24.511309
v 6.435744 9.941227 -25.153946
v 6.387456 9.936538 -25.129910
v 6.365638 9.928119 -25.098362
v 6.183449 9.765106 -24.537403
v 6.182841 9.753459 -24.499903
v 6.844796 5.731087 -26.203465
v 6.907501 5.725372 -26.186586
v 11.098486 5.725372 -24.825430
v 11.159142 5.731087 -24.802242
v 6.831367 5.714893 -26.171450
v 6.649178 5.551881 -25.610491
v 6.714192 5.544955 -25.591389
v 6.896381 5.707968 -26.152348
v 11.087366 5.707968 -24.791191
v 10.905177 5.544955 -24.230232
v 11.151197 5.714893 -24.768448
v 10.969009 5.551881 -24.207489
v 6.640181 5.548008 -25.573458
v 6.701889 5.541402 -25.553509
v 10.892874 5.541402 -24.192352
v 10.954527 5.548008 -24.172235
v 6.227520 9.771994 -24.451017
v 6.275908 9.779726 -24.420961
v 6.327237 9.782063 -24.399958
v 10.518222 9.782063 -23.038803
v 10.572096 9.779726 -23.025637
v 10.628911 9.771994 -23.021526
v 6.218012 9.791236 -24.483549
v 6.276202 9.811310 -24.452770
v 6.336859 9.817024 -24.429583
v 10.527843 9.817024 -23.068426
v 10.590549 9.811310 -23.051548
v 10.655720 9.791236 -23.042263
v 6.221813 9.803020 -24.513926
v 6.404002 9.966032 -25.074883
v 6.284147 9.827503 -24.486565
v 6.466336 9.990516 -25.047523
v 6.530168 9.997441 -25.024780
v 6.347979 9.834429 -24.463821
v 10.538963 9.834429 -23.102665
v 10.721152 9.997441 -23.663624
v 10.603978 9.827503 -23.083563
v 10.786167 9.990516 -23.644522
v 10.670492 9.803020 -23.069075
v 10.852681 9.966032 -23.630033
v 6.419326 9.971360 -25.103394
v 6.480817 9.994389 -25.082777
v 6.542471 10.000995 -25.062660
v 10.733456 10.000995 -23.701504
v 10.795164 9.994389 -23.681555
v 10.857034 9.971360 -23.662106
v 6.447959 9.969230 -25.129747
v 6.502949 9.982870 -25.120018
v 6.556273 9.986990 -25.105156
v 10.747257 9.986990 -23.743999
v 10.799137 9.982870 -23.724693
v 10.849350 9.969230 -23.700254
v 10.763433 9.919844 -23.793806
v 11.111336 5.844843 -24.864994
v 6.572449 9.919844 -25.154961
v 6.920351 5.844843 -26.226151
v 10.644068 9.799687 -23.658079
v 10.980186 5.862718 -24.692984
v 6.589285 9.799687 -24.975000
v 6.925403 5.862718 -26.009905
vn -0.5003 -0.8055 0.3176
vn -0.3223 -0.8555 0.4052
vn -0.4454 -0.5832 0.6793
vn -0.6701 -0.5658 0.4804
vn -0.1960 -0.8690 0.4543
vn -0.2934 -0.5991 0.7450
vn -0.1083 -0.8690 0.4828
vn -0.2003 -0.5991 0.7752
vn 0.0227 -0.8555 0.5173
vn -0.0387 -0.5832 0.8113
vn 0.2181 -0.8055 0.5510
vn 0.2600 -0.5658 0.7825
vn -0.4991 -0.3424 0.7960
vn -0.7407 -0.3195 0.5910
vn -0.3384 -0.3510 0.8731
vn -0.2392 -0.3510 0.9053
vn -0.0638 -0.3424 0.9374
vn 0.2521 -0.3195 0.9134
vn -0.5135 -0.1741 0.8402
vn -0.7567 -0.1320 0.6402
vn -0.3530 -0.1789 0.9183
vn -0.2539 -0.1789 0.9505
vn -0.0782 -0.1741 0.9816
vn 0.2361 -0.1320 0.9627
vn -0.5035 0.0980 0.8584
vn -0.7308 0.1445 0.6671
vn -0.3534 0.1036 0.9297
vn -0.2603 0.1036 0.9599
vn -0.0969 0.0980 0.9904
vn 0.1993 0.1445 0.9692
vn -0.4368 0.4850 0.7576
vn -0.6080 0.4566 0.6494
vn -0.3123 0.4927 0.8123
vn -0.2246 0.4926 0.8407
vn -0.0917 0.4850 0.8697
vn 0.1104 0.4566 0.8827
vn 0.4204 -0.8602 0.2885
vn 0.6088 -0.5786 0.5426
vn 0.5372 -0.8427 0.0356
vn 0.8046 -0.5418 0.2432
vn 0.5951 -0.7909 -0.1426
vn 0.8806 -0.4737 0.0090
vn 0.6398 -0.6639 -0.3870
vn 0.8889 -0.3280 -0.3197
vn 0.6080 -0.4566 -0.6494
vn 0.7308 -0.1445 -0.6671
vn 0.6529 -0.2634 0.7101
vn 0.8985 -0.1812 0.3998
vn 0.9862 -0.1027 0.1297
vn 0.9666 0.0172 -0.2557
vn 0.7567 0.1320 -0.6402
vn 0.6319 -0.0172 0.7749
vn 0.8742 0.1027 0.4745
vn 0.9619 0.1812 0.2044
vn 0.9456 0.2634 -0.1910
vn 0.7407 0.3195 -0.5910
vn 0.5314 0.3280 0.7810
vn 0.7179 0.4737 0.5101
vn 0.7939 0.5418 0.2759
vn 0.8115 0.5786 -0.0813
vn 0.6702 0.5658 -0.4804
vn 0.2903 0.6639 0.6891
vn 0.3977 0.7909 0.4651
vn 0.4556 0.8427 0.2868
vn 0.5097 0.8602 0.0136
vn 0.5003 0.8055 -0.3176
vn 0.4368 -0.4850 -0.7576
vn 0.5036 -0.0980 -0.8584
vn 0.3123 -0.4927 -0.8123
vn 0.3534 -0.1036 -0.9297
vn 0.2246 -0.4927 -0.8407
vn 0.2603 -0.1036 -0.9599
vn 0.0917 -0.4850 -0.8697
vn 0.0969 -0.0980 -0.9904
vn -0.1104 -0.4566 -0.8827
vn -0.1993 -0.1445 -0.9692
vn 0.5135 0.1741 -0.8402
vn 0.3530 0.1789 -0.9183
vn 0.2539 0.1789 -0.9505
vn 0.0782 0.1741 -0.9816
vn -0.2361 0.1320 -0.9627
vn 0.4991 0.3424 -0.7960
vn 0.3384 0.3510 -0.8731
vn -0.0422 0.5316 -0.8459
vn 0.5312 0.5316 -0.6597
vn 0.6735 0.7103 -0.2046
vn -0.4247 0.7103 -0.5613
vn 0.0638 0.3424 -0.9374
vn 0.2392 0.3510 -0.9053
vn -0.2521 0.3195 -0.9134
vn 0.4454 0.5832 -0.6793
vn 0.2934 0.5991 -0.7450
vn 0.2003 0.5991 -0.7752
vn 0.0387 0.5832 -0.8113
vn -0.2600 0.5658 -0.7825
vn 0.3223 0.8555 -0.4052
vn 0.1960 0.8690 -0.4543
vn 0.1083 0.8690 -0.4828
vn -0.0227 0.8555 -0.5173
vn -0.2182 0.8055 -0.5510
vn -0.2903 -0.6639 -0.6891
vn -0.5314 -0.3280 -0.7810
vn -0.3977 -0.7909 -0.4651
vn -0.7179 -0.4737 -0.5101
vn -0.4556 -0.8427 -0.2868
vn -0.7939 -0.5418 -0.2759
vn -0.5097 -0.8602 -0.0136
vn -0.8115 -0.5786 0.0813
vn -0.6319 0.0172 -0.7748
vn -0.8742 -0.1027 -0.4745
vn -0.9619 -0.1812 -0.2044
vn -0.9456 -0.2634 0.1910
vn -0.6529 0.2634 -0.7101
vn -0.8985 0.1812 -0.3998
vn -0.9862 0.1027 -0.1297
vn -0.9666 -0.0172 0.2557
vn -0.6088 0.5786 -0.5426
vn -0.8046 0.5418 -0.2432
vn -0.8806 0.4737 -0.0090
vn -0.8889 0.3280 0.3197
vn -0.4204 0.8602 -0.2885
vn -0.5372 0.8427 -0.0356
vn -0.5951 0.7909 0.1426
vn -0.6398 0.6639 0.3870
vn -0.0231 -0.7836 -0.6208
vn 0.1385 -0.7992 -0.5849
vn 0.2316 -0.7992 -0.5547
vn 0.3835 -0.7836 -0.4887
vn -0.1119 -0.9113 -0.3963
vn 0.0588 -0.9349 -0.3499
vn 0.1580 -0.9349 -0.3177
vn 0.3234 -0.9113 -0.2550
vn -0.1638 -0.9578 -0.2363
vn 0.0057 -0.9825 -0.1863
vn 0.1048 -0.9825 -0.1541
vn 0.2714 -0.9578 -0.0949
vn -0.2336 -0.9719 0.0272
vn -0.0786 -0.9934 0.0835
vn 0.0145 -0.9934 0.1137
vn 0.1730 -0.9719 0.1593
vn -0.3835 0.7836 0.4887
vn -0.2316 0.7992 0.5547
vn -0.1385 0.7992 0.5849
vn 0.0231 0.7836 0.6208
vn -0.3234 0.9113 0.2550
vn -0.1580 0.9349 0.3177
vn -0.0588 0.9349 0.3499
vn 0.1119 0.9113 0.3963
vn -0.2714 0.9577 0.0949
vn -0.1048 0.9825 0.1541
vn -0.0057 0.9825 0.1863
vn 0.1638 0.9577 0.2363
vn -0.1730 0.9719 -0.1593
vn -0.0145 0.9934 -0.1137
vn 0.0786 0.9934 -0.0835
vn 0.2336 0.9719 -0.0272
vn 0.0074 -0.0497 -0.9987
vn 0.5809 -0.0496 -0.8125
vn 0.7685 -0.4027 -0.4972
vn -0.3297 -0.4027 -0.8539
usemtl None
s 1
f 1//1 2//2 7//3 6//4
f 2//2 3//5 8//6 7//3
f 3//5 4//7 9//8 8//6
f 4//7 5//9 10//10 9//8
f 5//9 26//11 31//12 10//10
f 6//4 7//3 13//13 11//14
f 7//3 8//6 16//15 13//13
f 8//6 9//8 17//16 16//15
f 9//8 10//10 19//17 17//16
f 10//10 31//12 36//18 19//17
f 11//14 13//13 14//19 12//20
f 13//13 16//15 15//21 14//19
f 16//15 17//16 18//22 15//21
f 17//16 19//17 20//23 18//22
f 19//17 36//18 37//24 20//23
f 12//20 14//19 22//25 21//26
f 14//19 15//21 23//27 22//25
f 15//21 18//22 24//28 23//27
f 18//22 20//23 25//29 24//28
f 20//23 37//24 46//30 25//29
f 21//26 22//25 118//31 117//32
f 22//25 23//27 119//33 118//31
f 23//27 24//28 120//34 119//33
f 24//28 25//29 121//35 120//34
f 25//29 46//30 122//36 121//35
f 26//11 27//37 32//38 31//12
f 27//37 28//39 33//40 32//38
f 28//39 29//41 34//42 33//40
f 29//41 30//43 35//44 34//42
f 30//43 51//45 56//46 35//44
f 31//12 32//38 38//47 36//18
f 32//38 33//40 41//48 38//47
f 33//40 34//42 42//49 41//48
f 34//42 35//44 44//50 42//49
f 35//44 56//46 61//51 44//50
f 36//18 38//47 39//52 37//24
f 38//47 41//48 40//53 39//52
f 41//48 42//49 43//54 40//53
f 42//49 44//50 45//55 43//54
f 44//50 61//51 62//56 45//55
f 37//24 39//52 47//57 46//30
f 39//52 40//53 48//58 47//57
f 40//53 43//54 49//59 48//58
f 43//54 45//55 50//60 49//59
f 45//55 62//56 71//61 50//60
f 46//30 47//57 128//62 122//36
f 47//57 48//58 139//63 128//62
f 48//58 49//59 140//64 139//63
f 49//59 50//60 146//65 140//64
f 50//60 71//61 152//66 146//65
f 51//45 52//67 57//68 56//46
f 52//67 53//69 58//70 57//68
f 53//69 54//71 59//72 58//70
f 54//71 55//73 60//74 59//72
f 55//73 76//75 81//76 60//74
f 56//46 57//68 63//77 61//51
f 57//68 58//70 154//78 63//77
f 58//70 59//72 156//79 154//78
f 59//72 60//74 69//80 156//79
f 60//74 81//76 86//81 69//80
f 61//51 63//77 64//82 62//56
f 63//77 154//78 153//83 64//82
f 66//84 67//85 160//86 158//87
f 156//79 69//80 70//88 155//89
f 69//80 86//81 87//90 70//88
f 62//56 64//82 72//91 71//61
f 64//82 153//83 73//92 72//91
f 153//83 155//89 74//93 73//92
f 155//89 70//88 75//94 74//93
f 70//88 87//90 96//95 75//94
f 71//61 72//91 151//96 152//66
f 72//91 73//92 150//97 151//96
f 73//92 74//93 149//98 150//97
f 74//93 75//94 148//99 149//98
f 75//94 96//95 147//100 148//99
f 76//75 77//101 82//102 81//76
f 77//101 78//103 83//104 82//102
f 78//103 79//105 84//106 83//104
f 79//105 80//107 85//108 84//106
f 80//107 1//1 6//4 85//108
f 81//76 82//102 88//109 86//81
f 82//102 83//104 91//110 88//109
f 83//104 84//106 92//111 91//110
f 84//106 85//108 94//112 92//111
f 85//108 6//4 11//14 94//112
f 86//81 88//109 89//113 87//90
f 88//109 91//110 90//114 89//113
f 91//110 92//111 93//115 90//114
f 92//111 94//112 95//116 93//115
f 94//112 11//14 12//20 95//116
f 87//90 89//113 97//117 96//95
f 89//113 90//114 98//118 97//117
f 90//114 93//115 99//119 98//118
f 93//115 95//116 100//120 99//119
f 95//116 12//20 21//26 100//120
f 96//95 97//117 141//121 147//100
f 97//117 98//118 130//122 141//121
f 98//118 99//119 129//123 130//122
f 99//119 100//120 123//124 129//123
f 100//120 21//26 117//32 123//124
f 76//75 55//73 101//125 77//101
f 55//73 54//71 102//126 101//125
f 54//71 53//69 103//127 102//126
f 53//69 52//67 104//128 103//127
f 52//67 51//45 30//43 104//128
f 77//101 101//125 105//129 78//103
f 101//125 102//126 108//130 105//129
f 102//126 103//127 109//131 108//130
f 103//127 104//128 111//132 109//131
f 104//128 30//43 29//41 111//132
f 78//103 105//129 106//133 79//105
f 105//129 108//130 107//134 106//133
f 108//130 109//131 110//135 107//134
f 109//131 111//132 112//136 110//135
f 111//132 29//41 28//39 112//136
f 79//105 106//133 113//137 80//107
f 106//133 107//134 114//138 113//137
f 107//134 110//135 115//139 114//138
f 110//135 112//136 116//140 115//139
f 112//136 28//39 27//37 116//140
f 80//107 113//137 2//2 1//1
f 113//137 114//138 3//5 2//2
f 114//138 115//139 4//7 3//5
f 115//139 116//140 5//9 4//7
f 116//140 27//37 26//11 5//9
f 117//32 118//31 124//141 123//124
f 118//31 119//33 125//142 124//141
f 119//33 120//34 126//143 125//142
f 120//34 121//35 127//144 126//143
f 121//35 122//36 128//62 127//144
f 123//124 124//141 131//145 129//123
f 124//141 125//142 134//146 131//145
f 125//142 126//143 135//147 134//146
f 126//143 127//144 137//148 135//147
f 127//144 128//62 139//63 137//148
f 129//123 131//145 132//149 130//122
f 131//145 134//146 133//150 132//149
f 134//146 135//147 136//151 133//150
f 135//147 137//148 138//152 136//151
f 137//148 139//63 140//64 138//152
f 130//122 132//149 142//153 141//121
f 132//149 133//150 143//154 142//153
f 133//150 136//151 144//155 143//154
f 136//151 138//152 145//156 144//155
f 138//152 140//64 146//65 145//156
f 141//121 142//153 148//99 147//100
f 142//153 143//154 149//98 148//99
f 143//154 144//155 150//97 149//98
f 144//155 145//156 151//96 150//97
f 145//156 146//65 152//66 151//96
f 66//84 65//157 153//83 154//78
f 65//157 68//158 155//89 153//83
f 67//85 66//84 154//78 156//79
f 68//158 67//85 156//79 155//89
f 158//87 160//86 159//159 157//160
f 65//157 66//84 158//87 157//160
f 67//85 68//158 159//159 160//86
f 68//158 65//157 157//160 159//159
