# Blender v3.0.0 OBJ File: '3dModels.blend'
# www.blender.org
mtllib apoio.mtl
v 0.000001 -0.661995 -26.689764
v 0.000001 0.645305 -26.689764
v 15.687849 -0.661995 -21.592474
v 15.687849 0.645305 -21.592474
v 25.383476 -0.661995 -8.247589
v 25.383476 0.645305 -8.247589
v 25.383472 -0.661995 8.247591
v 25.383472 0.645305 8.247591
v 0.000000 -0.661995 -36.575684
v 21.498646 -0.661995 -29.590351
v 21.498646 0.645305 -29.590351
v 0.000000 0.645305 -36.575684
v 34.785542 -0.661995 -11.302506
v 34.785542 0.645305 -11.302506
v 34.785542 -0.661995 11.302509
v 34.785542 0.645305 11.302509
vt 1.000000 0.500000
vt 1.000000 1.000000
vt 0.900000 1.000000
vt 0.900000 0.500000
vt 0.800000 1.000000
vt 0.800000 0.500000
vt 0.700000 1.000000
vt 0.700000 0.500000
vt 0.250000 0.490000
vt 0.750000 0.490000
vt 0.750000 0.425131
vt 0.250000 0.425131
vt 0.352940 0.391684
vt 0.852939 0.391684
vt 0.891068 0.444164
vt 0.391068 0.444164
vt 0.916560 0.304118
vt 0.978254 0.324164
vt 0.416560 0.304118
vt 0.478254 0.324164
vt 0.916560 0.195881
vt 0.978254 0.175836
vt 0.416560 0.195881
vt 0.478254 0.175836
vn 0.3090 0.0000 -0.9511
vn 0.8090 0.0000 -0.5878
vn 1.0000 0.0000 0.0000
vn -1.0000 -0.0000 0.0000
vn -0.3090 0.0000 0.9511
vn 0.0000 -1.0000 0.0000
vn 0.0000 1.0000 0.0000
vn -0.8090 0.0000 0.5878
usemtl None
s off
f 9/1/1 12/2/1 11/3/1 10/4/1
f 10/4/2 11/3/2 14/5/2 13/6/2
f 13/6/3 14/5/3 16/7/3 15/8/3
f 12/9/4 9/10/4 1/11/4 2/12/4
f 4/13/5 2/12/5 1/11/5 3/14/5
f 3/14/6 1/11/6 9/10/6 10/15/6
f 2/12/7 4/13/7 11/16/7 12/9/7
f 5/17/6 3/14/6 10/15/6 13/18/6
f 4/13/7 6/19/7 14/20/7 11/16/7
f 7/21/6 5/17/6 13/18/6 15/22/6
f 6/19/7 8/23/7 16/24/7 14/20/7
f 4/13/8 3/14/8 5/17/8 6/19/8
f 5/17/4 7/21/4 8/23/4 6/19/4
f 16/24/5 8/23/5 7/21/5 15/22/5
