# Blender v3.0.0 OBJ File: '3dModels.blend'
# www.blender.org
mtllib baserRamp.mtl
v 15.356176 1.561771 -21.135963
v 15.356176 2.869070 -21.135963
v 24.846817 1.561771 -8.073218
v 24.846817 2.869070 -8.073218
v 24.846815 1.561771 8.073220
v 24.846815 2.869070 8.073220
v 15.356174 1.561771 21.135963
v 15.356174 2.869070 21.135963
vt 0.077614 0.105721
vt 0.085659 0.099444
vt 0.163186 0.198800
vt 0.155141 0.205077
vt 0.240713 0.298156
vt 0.232669 0.304433
vt 0.318240 0.397512
vt 0.310196 0.403789
vn 0.8090 0.0000 -0.5878
vn 1.0000 0.0000 0.0000
vn 0.8090 0.0000 0.5878
vn -1.0000 0.0000 -0.0000
vn 0.0000 1.0000 0.0000
vn 0.0000 -1.0000 0.0000
usemtl None
s off
f 1/1/1 2/2/1 4/3/1 3/4/1
f 3/4/2 4/3/2 6/5/2 5/6/2
f 5/6/3 6/5/3 8/7/3 7/8/3
f 1/1/4 7/8/4 8/7/4 2/2/4
f 4/3/5 2/2/5 8/7/5 6/5/5
f 1/1/6 3/4/6 5/6/6 7/8/6
