# Blender v3.0.0 OBJ File: '3dModels.blend'
# www.blender.org
mtllib baseFundacao.mtl
v 0.000000 -1.815601 -26.058817
v 0.000000 -1.927760 -26.192158
v 0.000000 1.418360 -26.058817
v 0.000000 1.530519 -26.192158
v 15.316991 -1.815601 -21.082027
v 15.395361 -1.927760 -21.189901
v 15.316991 1.418360 -21.082027
v 15.395361 1.530519 -21.189901
v 24.783409 -1.815601 -8.052618
v 24.910223 -1.927760 -8.093819
v 24.783409 1.418360 -8.052618
v 24.910223 1.530519 -8.093819
v 24.783407 -1.815601 8.052620
v 24.910221 -1.927760 8.093822
v 24.783407 1.418360 8.052620
v 24.910221 1.530519 8.093822
v 15.316990 -1.815601 21.082027
v 15.395360 -1.927760 21.189901
v 15.316990 1.418360 21.082027
v 15.395360 1.530519 21.189901
v -0.000002 -1.815601 26.058817
v -0.000002 -1.927760 26.192158
v -0.000002 1.418360 26.058817
v -0.000002 1.530519 26.192158
v -15.316994 -1.815601 21.082026
v -15.395364 -1.927760 21.189899
v -15.316994 1.418360 21.082026
v -15.395364 1.530519 21.189899
v -24.783407 -1.815601 8.052621
v -24.910221 -1.927760 8.093822
v -24.783407 1.418360 8.052621
v -24.910221 1.530519 8.093822
v -24.783407 -1.815601 -8.052622
v -24.910221 -1.927760 -8.093823
v -24.783407 1.418360 -8.052622
v -24.910221 1.530519 -8.093823
v -15.316992 -1.815601 -21.082026
v -15.395362 -1.927760 -21.189899
v -15.316992 1.418360 -21.082026
v -15.395362 1.530519 -21.189899
v 0.082857 -1.784559 -26.098566
v 0.082857 1.387318 -26.098566
v 15.273319 1.387318 -21.162886
v 15.273319 -1.784559 -21.162886
v 15.407385 -1.784559 -21.065481
v 15.407385 1.387318 -21.065481
v 24.795609 1.387318 -8.143702
v 24.795609 -1.784559 -8.143702
v 24.846817 -1.784559 -7.986097
v 24.846817 1.387318 -7.986097
v 24.846815 1.387318 7.986099
v 24.846815 -1.784559 7.986099
v 24.795607 -1.784559 8.143703
v 24.795607 1.387318 8.143703
v 15.407384 1.387318 21.065481
v 15.407384 -1.784559 21.065481
v 15.273318 -1.784559 21.162886
v 15.273318 1.387318 21.162886
v 0.082855 1.387318 26.098566
v 0.082855 -1.784559 26.098566
v -0.082859 -1.784559 26.098566
v -0.082859 1.387318 26.098566
v -15.273322 1.387318 21.162884
v -15.273322 -1.784559 21.162884
v -15.407388 -1.784559 21.065479
v -15.407388 1.387318 21.065479
v -24.795607 1.387318 8.143704
v -24.795607 -1.784559 8.143704
v -24.846815 -1.784559 7.986101
v -24.846815 1.387318 7.986101
v -24.846815 1.387318 -7.986102
v -24.846815 -1.784559 -7.986102
v 15.302333 1.474439 -21.061853
v 0.000000 1.474439 -26.033882
v -15.302334 1.474439 -21.061852
v -24.759693 1.474439 -8.044915
v -24.759693 1.474439 8.044914
v -15.302336 1.474439 21.061852
v -0.000002 1.474439 26.033882
v 15.302331 1.474439 21.061853
v 24.759693 1.474439 8.044913
v 24.759695 1.474439 -8.044911
v -24.795607 -1.784559 -8.143705
v -24.795607 1.387318 -8.143705
v -15.407386 1.387318 -21.065479
v -15.407386 -1.784559 -21.065479
v -15.273320 -1.784559 -21.162884
v -15.273320 1.387318 -21.162884
v -0.082857 1.387318 -26.098566
v -0.082857 -1.784559 -26.098566
v 0.000000 -1.871680 -26.033882
v 15.302333 -1.871680 -21.061853
v 24.759695 -1.871680 -8.044911
v 24.759693 -1.871680 8.044913
v 15.302331 -1.871680 21.061853
v -0.000002 -1.871680 26.033882
v -15.302336 -1.871680 21.061852
v -24.759693 -1.871680 8.044914
v -24.759693 -1.871680 -8.044915
v -15.302334 -1.871680 -21.061852
vt 1.000000 0.500000
vt 1.000000 1.000000
vt 1.000000 1.000000
vt 1.000000 0.500000
vt 1.000000 0.500000
vt 1.000000 1.000000
vt 0.900000 1.000000
vt 0.900000 1.000000
vt 0.900000 1.000000
vt 0.900000 0.500000
vt 0.900000 0.500000
vt 0.900000 0.500000
vt 0.900000 0.500000
vt 0.900000 1.000000
vt 0.800000 1.000000
vt 0.800000 1.000000
vt 0.800000 1.000000
vt 0.800000 0.500000
vt 0.800000 0.500000
vt 0.800000 0.500000
vt 0.800000 0.500000
vt 0.800000 1.000000
vt 0.700000 1.000000
vt 0.700000 1.000000
vt 0.700000 1.000000
vt 0.700000 0.500000
vt 0.700000 0.500000
vt 0.700000 0.500000
vt 0.700000 0.500000
vt 0.700000 1.000000
vt 0.600000 1.000000
vt 0.600000 1.000000
vt 0.600000 1.000000
vt 0.600000 0.500000
vt 0.600000 0.500000
vt 0.600000 0.500000
vt 0.600000 0.500000
vt 0.600000 1.000000
vt 0.500000 1.000000
vt 0.500000 1.000000
vt 0.500000 1.000000
vt 0.500000 0.500000
vt 0.500000 0.500000
vt 0.500000 0.500000
vt 0.500000 0.500000
vt 0.500000 1.000000
vt 0.400000 1.000000
vt 0.400000 1.000000
vt 0.400000 1.000000
vt 0.400000 0.500000
vt 0.400000 0.500000
vt 0.400000 0.500000
vt 0.400000 0.500000
vt 0.400000 1.000000
vt 0.300000 1.000000
vt 0.300000 1.000000
vt 0.300000 1.000000
vt 0.300000 0.500000
vt 0.300000 0.500000
vt 0.300000 0.500000
vt 0.300000 0.500000
vt 0.300000 1.000000
vt 0.200000 1.000000
vt 0.200000 1.000000
vt 0.200000 1.000000
vt 0.200000 0.500000
vt 0.200000 0.500000
vt 0.200000 0.500000
vt 0.391068 0.444164
vt 0.250000 0.490000
vt 0.250000 0.490000
vt 0.391068 0.444164
vt 0.391068 0.444164
vt 0.250000 0.490000
vt 0.108932 0.444164
vt 0.108932 0.444164
vt 0.108932 0.444164
vt 0.021746 0.324164
vt 0.021746 0.324164
vt 0.021746 0.324164
vt 0.021746 0.175836
vt 0.021746 0.175836
vt 0.021746 0.175836
vt 0.108932 0.055836
vt 0.108932 0.055836
vt 0.108932 0.055836
vt 0.250000 0.010000
vt 0.250000 0.010000
vt 0.250000 0.010000
vt 0.391068 0.055836
vt 0.391068 0.055836
vt 0.391068 0.055836
vt 0.478254 0.175836
vt 0.478254 0.175836
vt 0.478254 0.175836
vt 0.478254 0.324164
vt 0.478254 0.324164
vt 0.478254 0.324164
vt 0.200000 0.500000
vt 0.200000 1.000000
vt 0.100000 1.000000
vt 0.100000 1.000000
vt 0.100000 1.000000
vt 0.100000 0.500000
vt 0.100000 0.500000
vt 0.100000 0.500000
vt 0.100000 0.500000
vt 0.100000 1.000000
vt -0.000000 1.000000
vt -0.000000 1.000000
vt -0.000000 1.000000
vt -0.000000 0.500000
vt -0.000000 0.500000
vt -0.000000 0.500000
vt 0.750000 0.490000
vt 0.891068 0.444164
vt 0.891068 0.444164
vt 0.750000 0.490000
vt 0.750000 0.490000
vt 0.891068 0.444164
vt 0.978254 0.324164
vt 0.978254 0.324164
vt 0.978254 0.324164
vt 0.978254 0.175836
vt 0.978254 0.175836
vt 0.978254 0.175836
vt 0.891068 0.055836
vt 0.891068 0.055836
vt 0.891068 0.055836
vt 0.750000 0.010000
vt 0.750000 0.010000
vt 0.750000 0.010000
vt 0.608932 0.055836
vt 0.608932 0.055836
vt 0.608932 0.055836
vt 0.521746 0.175836
vt 0.521746 0.175836
vt 0.521746 0.175836
vt 0.521746 0.324164
vt 0.521746 0.324164
vt 0.521746 0.324164
vt 0.608932 0.444164
vt 0.608932 0.444164
vt 0.608932 0.444164
vn 0.6897 0.6983 -0.1914
vn 0.6897 -0.6983 -0.1914
vn 0.0000 -0.4287 0.9034
vn 0.0000 0.4287 0.9034
vn 0.0000 -0.6681 -0.7441
vn 0.0000 0.6681 -0.7441
vn -0.4455 -0.6983 -0.5602
vn -0.5310 -0.4286 0.7309
vn 0.4373 0.6681 -0.6019
vn -0.4455 0.6983 -0.5602
vn -0.5310 0.4286 0.7309
vn 0.4373 -0.6681 -0.6019
vn 0.6705 0.6983 0.2506
vn 0.6705 -0.6983 0.2506
vn -0.0311 -0.6983 -0.7151
vn -0.8592 -0.4287 0.2792
vn 0.7077 0.6681 -0.2299
vn -0.0311 0.6983 -0.7151
vn -0.8592 0.4287 0.2792
vn 0.7077 -0.6681 -0.2299
vn 0.3952 0.6983 0.5969
vn 0.3952 -0.6983 0.5969
vn 0.3952 -0.6983 -0.5969
vn -0.8592 -0.4287 -0.2792
vn 0.7077 0.6681 0.2299
vn 0.3952 0.6983 -0.5969
vn -0.8592 0.4287 -0.2792
vn 0.7077 -0.6681 0.2299
vn -0.0311 0.6983 0.7151
vn -0.0311 -0.6983 0.7151
vn 0.6705 -0.6983 -0.2506
vn -0.5310 -0.4286 -0.7309
vn 0.4373 0.6681 0.6019
vn 0.6705 0.6983 -0.2506
vn -0.5310 0.4287 -0.7309
vn 0.4373 -0.6681 0.6019
vn -0.4455 0.6983 0.5602
vn -0.4455 -0.6983 0.5602
vn 0.6897 -0.6983 0.1914
vn 0.0000 -0.4287 -0.9034
vn 0.0000 0.6681 0.7441
vn 0.6897 0.6983 0.1914
vn 0.0000 0.4287 -0.9034
vn 0.0000 -0.6681 0.7441
vn -0.6897 0.6983 0.1914
vn -0.6897 -0.6983 0.1914
vn 0.4455 -0.6983 0.5603
vn 0.5310 -0.4287 -0.7309
vn -0.4374 0.6681 0.6019
vn 0.4455 0.6983 0.5603
vn 0.5310 0.4287 -0.7309
vn -0.4374 -0.6681 0.6019
vn -0.6705 0.6983 -0.2506
vn -0.6705 -0.6983 -0.2506
vn 0.0311 -0.6983 0.7151
vn 0.8592 -0.4287 -0.2792
vn -0.7077 0.6681 0.2299
vn 0.0311 0.6983 0.7151
vn 0.8592 0.4287 -0.2792
vn -0.7077 -0.6681 0.2299
vn -0.3952 0.6983 -0.5969
vn -0.3952 -0.6983 -0.5969
vn -0.3952 -0.6983 0.5969
vn 0.8592 -0.4287 0.2792
vn -0.7077 0.6681 -0.2299
vn -0.3952 0.6983 0.5969
vn 0.8592 0.4287 0.2792
vn -0.7077 -0.6681 -0.2299
vn -0.5222 0.4590 0.7187
vn 0.0000 0.4590 0.8884
vn 0.5222 0.4590 0.7187
vn 0.5310 -0.4287 0.7309
vn -0.4373 0.6681 -0.6019
vn 0.8449 0.4590 0.2745
vn 0.8449 0.4590 -0.2745
vn 0.5222 0.4590 -0.7187
vn 0.0000 0.4590 -0.8884
vn -0.5222 0.4590 -0.7187
vn -0.8449 0.4590 -0.2745
vn -0.8449 0.4590 0.2745
vn 0.0311 0.6983 -0.7151
vn 0.0311 -0.6983 -0.7151
vn -0.6705 -0.6983 0.2506
vn -0.6705 0.6983 0.2506
vn 0.5310 0.4287 0.7309
vn -0.4373 -0.6681 -0.6020
vn 0.4455 0.6983 -0.5603
vn 0.4455 -0.6983 -0.5603
vn -0.6897 -0.6983 -0.1914
vn -0.6897 0.6983 -0.1914
vn 0.0000 -0.4590 0.8884
vn -0.5222 -0.4590 0.7187
vn -0.8449 -0.4590 0.2745
vn -0.8449 -0.4590 -0.2745
vn -0.5222 -0.4590 -0.7187
vn 0.0000 -0.4590 -0.8884
vn 0.5222 -0.4590 -0.7187
vn 0.8449 -0.4590 -0.2745
vn 0.8449 -0.4590 0.2745
vn 0.5222 -0.4590 0.7187
usemtl None
s 1
f 41/1/1 42/2/2 3/3/3 1/4/4
f 42/2/2 41/1/1 2/5/5 4/6/6
f 42/2/2 43/7/7 7/8/8 3/3/3
f 43/7/7 42/2/2 4/6/6 8/9/9
f 43/7/7 44/10/10 5/11/11 7/8/8
f 44/10/10 43/7/7 8/9/9 6/12/12
f 44/10/10 41/1/1 1/4/4 5/11/11
f 41/1/1 44/10/10 6/12/12 2/5/5
f 45/13/13 46/14/14 7/8/8 5/11/11
f 46/14/14 45/13/13 6/12/12 8/9/9
f 46/14/14 47/15/15 11/16/16 7/8/8
f 47/15/15 46/14/14 8/9/9 12/17/17
f 47/15/15 48/18/18 9/19/19 11/16/16
f 48/18/18 47/15/15 12/17/17 10/20/20
f 48/18/18 45/13/13 5/11/11 9/19/19
f 45/13/13 48/18/18 10/20/20 6/12/12
f 49/21/21 50/22/22 11/16/16 9/19/19
f 50/22/22 49/21/21 10/20/20 12/17/17
f 50/22/22 51/23/23 15/24/24 11/16/16
f 51/23/23 50/22/22 12/17/17 16/25/25
f 51/23/23 52/26/26 13/27/27 15/24/24
f 52/26/26 51/23/23 16/25/25 14/28/28
f 52/26/26 49/21/21 9/19/19 13/27/27
f 49/21/21 52/26/26 14/28/28 10/20/20
f 53/29/29 54/30/30 15/24/24 13/27/27
f 54/30/30 53/29/29 14/28/28 16/25/25
f 54/30/30 55/31/31 19/32/32 15/24/24
f 55/31/31 54/30/30 16/25/25 20/33/33
f 55/31/31 56/34/34 17/35/35 19/32/32
f 56/34/34 55/31/31 20/33/33 18/36/36
f 56/34/34 53/29/29 13/27/27 17/35/35
f 53/29/29 56/34/34 18/36/36 14/28/28
f 57/37/37 58/38/38 19/32/32 17/35/35
f 58/38/38 57/37/37 18/36/36 20/33/33
f 58/38/38 59/39/39 23/40/40 19/32/32
f 59/39/39 58/38/38 20/33/33 24/41/41
f 59/39/39 60/42/42 21/43/43 23/40/40
f 60/42/42 59/39/39 24/41/41 22/44/44
f 60/42/42 57/37/37 17/35/35 21/43/43
f 57/37/37 60/42/42 22/44/44 18/36/36
f 61/45/45 62/46/46 23/40/40 21/43/43
f 62/46/46 61/45/45 22/44/44 24/41/41
f 62/46/46 63/47/47 27/48/48 23/40/40
f 63/47/47 62/46/46 24/41/41 28/49/49
f 63/47/47 64/50/50 25/51/51 27/48/48
f 64/50/50 63/47/47 28/49/49 26/52/52
f 64/50/50 61/45/45 21/43/43 25/51/51
f 61/45/45 64/50/50 26/52/52 22/44/44
f 65/53/53 66/54/54 27/48/48 25/51/51
f 66/54/54 65/53/53 26/52/52 28/49/49
f 66/54/54 67/55/55 31/56/56 27/48/48
f 67/55/55 66/54/54 28/49/49 32/57/57
f 67/55/55 68/58/58 29/59/59 31/56/56
f 68/58/58 67/55/55 32/57/57 30/60/60
f 68/58/58 65/53/53 25/51/51 29/59/59
f 65/53/53 68/58/58 30/60/60 26/52/52
f 69/61/61 70/62/62 31/56/56 29/59/59
f 70/62/62 69/61/61 30/60/60 32/57/57
f 70/62/62 71/63/63 35/64/64 31/56/56
f 71/63/63 70/62/62 32/57/57 36/65/65
f 71/63/63 72/66/66 33/67/67 35/64/64
f 72/66/66 71/63/63 36/65/65 34/68/68
f 72/66/66 69/61/61 29/59/59 33/67/67
f 69/61/61 72/66/66 34/68/68 30/60/60
f 73/69/69 74/70/70 3/71/3 7/72/8
f 74/70/70 73/69/69 8/73/9 4/74/6
f 74/70/70 75/75/71 39/76/72 3/71/3
f 75/75/71 74/70/70 4/74/6 40/77/73
f 75/75/71 76/78/74 35/79/64 39/76/72
f 76/78/74 75/75/71 40/77/73 36/80/65
f 76/78/74 77/81/75 31/82/56 35/79/64
f 77/81/75 76/78/74 36/80/65 32/83/57
f 77/81/75 78/84/76 27/85/48 31/82/56
f 78/84/76 77/81/75 32/83/57 28/86/49
f 78/84/76 79/87/77 23/88/40 27/85/48
f 79/87/77 78/84/76 28/86/49 24/89/41
f 79/87/77 80/90/78 19/91/32 23/88/40
f 80/90/78 79/87/77 24/89/41 20/92/33
f 80/90/78 81/93/79 15/94/24 19/91/32
f 81/93/79 80/90/78 20/92/33 16/95/25
f 81/93/79 82/96/80 11/97/16 15/94/24
f 82/96/80 81/93/79 16/95/25 12/98/17
f 82/96/80 73/69/69 7/72/8 11/97/16
f 73/69/69 82/96/80 12/98/17 8/73/9
f 83/99/81 84/100/82 35/64/64 33/67/67
f 84/100/82 83/99/81 34/68/68 36/65/65
f 84/100/82 85/101/83 39/102/72 35/64/64
f 85/101/83 84/100/82 36/65/65 40/103/73
f 85/101/83 86/104/84 37/105/85 39/102/72
f 86/104/84 85/101/83 40/103/73 38/106/86
f 86/104/84 83/99/81 33/67/67 37/105/85
f 83/99/81 86/104/84 38/106/86 34/68/68
f 87/107/87 88/108/88 39/102/72 37/105/85
f 88/108/88 87/107/87 38/106/86 40/103/73
f 88/108/88 89/109/89 3/110/3 39/102/72
f 89/109/89 88/108/88 40/103/73 4/111/6
f 89/109/89 90/112/90 1/113/4 3/110/3
f 90/112/90 89/109/89 4/111/6 2/114/5
f 90/112/90 87/107/87 37/105/85 1/113/4
f 87/107/87 90/112/90 2/114/5 38/106/86
f 91/115/91 92/116/92 5/117/11 1/118/4
f 92/116/92 91/115/91 2/119/5 6/120/12
f 92/116/92 93/121/93 9/122/19 5/117/11
f 93/121/93 92/116/92 6/120/12 10/123/20
f 93/121/93 94/124/94 13/125/27 9/122/19
f 94/124/94 93/121/93 10/123/20 14/126/28
f 94/124/94 95/127/95 17/128/35 13/125/27
f 95/127/95 94/124/94 14/126/28 18/129/36
f 95/127/95 96/130/96 21/131/43 17/128/35
f 96/130/96 95/127/95 18/129/36 22/132/44
f 96/130/96 97/133/97 25/134/51 21/131/43
f 97/133/97 96/130/96 22/132/44 26/135/52
f 97/133/97 98/136/98 29/137/59 25/134/51
f 98/136/98 97/133/97 26/135/52 30/138/60
f 98/136/98 99/139/99 33/140/67 29/137/59
f 99/139/99 98/136/98 30/138/60 34/141/68
f 99/139/99 100/142/100 37/143/85 33/140/67
f 100/142/100 99/139/99 34/141/68 38/144/86
f 100/142/100 91/115/91 1/118/4 37/143/85
f 91/115/91 100/142/100 38/144/86 2/119/5
