# Blender v3.0.0 OBJ File: '3dModels.blend'
# www.blender.org
mtllib apoioFundacao.mtl
v 0.079257 -1.924267 -26.815569
v -0.079255 -2.028061 -26.700407
v 0.079257 -0.720762 -26.815569
v -0.079255 -0.616967 -26.700407
v 15.772479 -1.907888 -21.708958
v 15.683425 -2.044440 -21.586380
v 15.772479 -0.737140 -21.708960
v 15.683425 -0.600589 -21.586382
v 25.520411 -1.907888 -8.292083
v 25.376312 -2.044440 -8.245262
v 25.520411 -0.737140 -8.292083
v 25.376312 -0.600589 -8.245262
v 25.527617 -1.924267 8.211093
v 25.369101 -2.028061 8.326255
v 25.527617 -0.720762 8.211093
v 25.369101 -0.616967 8.326255
v 0.059267 -1.927151 -36.494106
v -0.059267 -2.025177 -36.657257
v 21.443787 -1.920084 -29.514839
v 21.553505 -2.032244 -29.665863
v 21.443787 -0.724944 -29.514839
v 21.553505 -0.612785 -29.665863
v 0.059267 -0.717877 -36.494106
v -0.059267 -0.619852 -36.657257
v 34.696774 -1.920084 -11.273665
v 34.874313 -2.032244 -11.331347
v 34.696774 -0.724944 -11.273665
v 34.874313 -0.612785 -11.331347
v 34.726273 -1.927151 11.220934
v 34.844807 -2.025177 11.384084
v 34.726273 -0.717877 11.220934
v 34.844807 -0.619852 11.384084
v 0.116000 -1.889043 -36.537994
v 0.116000 -0.755986 -36.537994
v 21.382647 -0.755986 -29.628040
v 21.382647 -1.889043 -29.628040
v 21.570339 -1.889043 -29.491674
v 21.570339 -0.755986 -29.491674
v 34.713852 -0.755986 -11.401182
v 34.713852 -1.889043 -11.401182
v 34.785542 -1.889043 -11.180536
v 34.785542 -0.755986 -11.180536
v 34.785542 -0.755986 11.180539
v 34.785542 -1.889043 11.180539
v 34.669540 -0.755986 11.264818
v 25.564358 -0.755986 8.306364
v 25.564358 -1.889043 8.306364
v 34.669540 -1.889043 11.264818
v 0.000000 -0.755986 -36.453712
v 0.000000 -1.889043 -36.453712
v 0.000001 -1.889043 -26.879957
v 0.000001 -0.755986 -26.879957
v 15.681363 -1.976164 -21.791054
v 0.121970 -1.976164 -26.846603
v 0.121970 -1.976164 -36.407806
v 21.301294 -1.976164 -29.526226
v 0.121970 -0.668865 -26.846603
v 15.681363 -0.668865 -21.791056
v 21.301294 -0.668865 -29.526226
v 0.121970 -0.668865 -36.407806
v 25.494949 -1.976164 -8.412057
v 15.878715 -1.976164 -21.647669
v 21.498646 -1.976164 -29.382843
v 34.588192 -1.976164 -11.366630
v 15.878715 -0.668865 -21.647671
v 25.494949 -0.668865 -8.412057
v 34.588192 -0.668865 -11.366630
v 21.498646 -0.668865 -29.382843
v 25.570328 -1.976164 8.180058
v 25.570332 -1.976164 -8.180056
v 34.663574 -1.976164 -11.134629
v 34.663570 -1.976164 11.134632
v 25.570332 -0.668865 -8.180056
v 25.570328 -0.668865 8.180058
v 34.663570 -0.668865 11.134632
v 34.663574 -0.668865 -11.134629
v 25.376671 -0.755986 -8.367349
v 15.799644 -0.755986 -21.548996
v 15.799644 -1.889043 -21.548994
v 25.376671 -1.889043 -8.367349
v 25.448360 -0.755986 -8.146703
v 25.448360 -1.889043 -8.146703
v 25.448359 -1.889043 8.146704
v 25.448359 -0.755986 8.146704
v 0.116001 -0.755986 -26.720297
v 0.116001 -1.889043 -26.720297
v 15.611952 -1.889043 -21.685360
v 15.611952 -0.755986 -21.685362
vt 1.000000 0.500000
vt 1.000000 1.000000
vt 1.000000 1.000000
vt 1.000000 0.500000
vt 1.000000 0.500000
vt 1.000000 1.000000
vt 0.900000 1.000000
vt 0.900000 1.000000
vt 0.900000 1.000000
vt 0.900000 0.500000
vt 0.900000 0.500000
vt 0.900000 0.500000
vt 0.900000 0.500000
vt 0.900000 1.000000
vt 0.800000 1.000000
vt 0.800000 1.000000
vt 0.800000 1.000000
vt 0.800000 0.500000
vt 0.800000 0.500000
vt 0.800000 0.500000
vt 0.800000 0.500000
vt 0.800000 1.000000
vt 0.700000 1.000000
vt 0.700000 1.000000
vt 0.700000 1.000000
vt 0.700000 0.500000
vt 0.700000 0.500000
vt 0.700000 0.500000
vt 0.478254 0.175836
vt 0.416985 0.195743
vt 0.416985 0.195743
vt 0.478254 0.175836
vt 0.478254 0.175836
vt 0.416985 0.195743
vt 0.916986 0.195743
vt 0.916986 0.195743
vt 0.916986 0.195743
vt 0.978254 0.175836
vt 0.978254 0.175836
vt 0.978254 0.175836
vt 0.250000 0.490000
vt 0.750000 0.490000
vt 0.750000 0.490000
vt 0.250000 0.490000
vt 0.250000 0.490000
vt 0.750000 0.490000
vt 0.750000 0.425579
vt 0.750000 0.425579
vt 0.750000 0.425579
vt 0.250000 0.425579
vt 0.250000 0.425579
vt 0.250000 0.425579
vt 0.853203 0.392046
vt 0.750000 0.425579
vt 0.853203 0.392046
vt 0.853203 0.392046
vt 0.750000 0.490000
vt 0.891068 0.444164
vt 0.891068 0.444164
vt 0.891068 0.444164
vt 0.250000 0.425579
vt 0.353203 0.392046
vt 0.353203 0.392046
vt 0.353203 0.392046
vt 0.391068 0.444164
vt 0.391068 0.444164
vt 0.391068 0.444164
vt 0.250000 0.490000
vt 0.916985 0.304257
vt 0.853203 0.392046
vt 0.916985 0.304257
vt 0.916985 0.304257
vt 0.891068 0.444164
vt 0.978254 0.324164
vt 0.978254 0.324164
vt 0.978254 0.324164
vt 0.353203 0.392046
vt 0.416985 0.304257
vt 0.416985 0.304257
vt 0.416985 0.304257
vt 0.478254 0.324164
vt 0.478254 0.324164
vt 0.478254 0.324164
vt 0.391068 0.444164
vt 0.916986 0.195743
vt 0.916985 0.304257
vt 0.978254 0.324164
vt 0.978254 0.175836
vt 0.416985 0.304257
vt 0.416985 0.195743
vt 0.478254 0.175836
vt 0.478254 0.324164
vt 0.416985 0.304257
vt 0.353203 0.392046
vt 0.853203 0.392046
vt 0.916985 0.304257
vt 0.416985 0.304257
vt 0.916985 0.304257
vt 0.916986 0.195743
vt 0.416985 0.195743
vt 0.250000 0.425579
vt 0.750000 0.425579
vt 0.853203 0.392046
vt 0.353203 0.392046
vn 0.6479 0.6921 -0.3180
vn 0.6479 -0.6921 -0.3180
vn 0.4442 -0.6584 0.6076
vn 0.4442 0.6584 0.6076
vn -0.5109 -0.5069 -0.6943
vn -0.5109 0.5069 -0.6943
vn -0.4056 -0.7394 -0.5374
vn -0.4013 -0.7292 0.5542
vn 0.4661 0.6035 -0.6469
vn -0.4056 0.7394 -0.5374
vn -0.4013 0.7292 0.5542
vn 0.4661 -0.6035 -0.6469
vn 0.6304 0.7525 0.1903
vn 0.6304 -0.7525 0.1903
vn 0.0139 -0.7525 -0.6584
vn -0.6511 -0.7292 0.2104
vn 0.7593 0.6035 -0.2434
vn 0.0139 0.7525 -0.6584
vn -0.6511 0.7292 0.2104
vn 0.7593 -0.6035 -0.2434
vn 0.3858 0.7394 0.5518
vn 0.3858 -0.7394 0.5518
vn 0.5026 -0.6921 -0.5180
vn -0.4406 -0.6584 -0.6102
vn 0.5024 0.5069 0.7004
vn 0.5026 0.6921 -0.5180
vn -0.4406 0.6584 -0.6102
vn 0.5024 -0.5069 0.7004
vn -0.6576 -0.6865 0.3102
vn 0.3843 -0.7060 0.5947
vn 0.6510 -0.5931 -0.4736
vn -0.6426 0.5969 0.4804
vn 0.3843 0.7060 0.5947
vn 0.6510 0.5931 -0.4736
vn -0.6426 -0.5969 0.4804
vn -0.6576 0.6865 0.3102
vn -0.4982 -0.6865 0.5296
vn -0.4982 0.6865 0.5296
vn -0.4469 0.7061 -0.5493
vn 0.6517 0.5931 -0.4728
vn -0.6554 -0.5969 0.4627
vn -0.4469 -0.7061 -0.5493
vn 0.6517 -0.5931 -0.4728
vn -0.6554 0.5969 0.4627
vn -0.1966 -0.2604 -0.9452
vn 0.7094 -0.4133 -0.5709
vn 0.3578 0.7915 -0.4954
vn -0.3767 -0.7644 0.5232
vn 0.4928 -0.4711 0.7316
vn -0.8593 -0.3134 0.4040
vn 0.7094 0.4133 -0.5709
vn -0.1966 0.2604 -0.9452
vn 0.3578 -0.7915 -0.4954
vn -0.3767 0.7644 0.5232
vn -0.8593 0.3134 0.4040
vn 0.4928 0.4711 0.7316
vn 0.4105 -0.2600 -0.8740
vn 0.9581 -0.2600 -0.1203
vn 0.5817 0.7916 -0.1872
vn -0.6140 -0.7644 0.1966
vn -0.1844 -0.4117 0.8925
vn -0.9058 -0.4117 -0.1003
vn 0.9581 0.2600 -0.1203
vn 0.4105 0.2600 -0.8740
vn 0.5817 -0.7916 -0.1872
vn -0.6140 0.7644 0.1966
vn -0.9058 0.4117 -0.1003
vn -0.1844 0.4117 0.8925
vn 0.7622 -0.4133 -0.4982
vn 0.8382 -0.2604 0.4791
vn -0.6498 -0.3134 0.6924
vn -0.5435 -0.4711 -0.6947
vn 0.8382 0.2604 0.4791
vn 0.7622 0.4133 -0.4982
vn -0.5435 0.4711 -0.6947
vn -0.6498 0.3134 0.6924
vn -0.6031 -0.7780 -0.1758
vn -0.0192 -0.7780 0.6279
vn -0.0192 0.7780 0.6279
vn -0.6031 0.7780 -0.1758
vn -0.3326 -0.7953 0.5067
vn -0.3326 0.7953 0.5067
vn -0.4860 0.7020 -0.5205
vn -0.4860 -0.7020 -0.5205
vn 0.3448 -0.7020 0.6231
vn 0.3448 0.7020 0.6231
vn -0.5847 0.7953 0.1598
vn -0.5847 -0.7953 0.1598
usemtl None
s 1
f 33/1/1 34/2/2 23/3/3 17/4/4
f 34/2/2 33/1/1 18/5/5 24/6/6
f 34/2/2 35/7/7 21/8/8 23/3/3
f 35/7/7 34/2/2 24/6/6 22/9/9
f 35/7/7 36/10/10 19/11/11 21/8/8
f 36/10/10 35/7/7 22/9/9 20/12/12
f 36/10/10 33/1/1 17/4/4 19/11/11
f 33/1/1 36/10/10 20/12/12 18/5/5
f 37/13/13 38/14/14 21/8/8 19/11/11
f 38/14/14 37/13/13 20/12/12 22/9/9
f 38/14/14 39/15/15 27/16/16 21/8/8
f 39/15/15 38/14/14 22/9/9 28/17/17
f 39/15/15 40/18/18 25/19/19 27/16/16
f 40/18/18 39/15/15 28/17/17 26/20/20
f 40/18/18 37/13/13 19/11/11 25/19/19
f 37/13/13 40/18/18 26/20/20 20/12/12
f 41/21/21 42/22/22 27/16/16 25/19/19
f 42/22/22 41/21/21 26/20/20 28/17/17
f 42/22/22 43/23/23 31/24/24 27/16/16
f 43/23/23 42/22/22 28/17/17 32/25/25
f 43/23/23 44/26/26 29/27/27 31/24/24
f 44/26/26 43/23/23 32/25/25 30/28/28
f 44/26/26 41/21/21 25/19/19 29/27/27
f 41/21/21 44/26/26 30/28/28 26/20/20
f 45/29/29 46/30/30 15/31/31 31/32/24
f 46/30/30 45/29/29 32/33/25 16/34/32
f 46/30/30 47/35/33 13/36/34 15/31/31
f 47/35/33 46/30/30 16/34/32 14/37/35
f 47/35/33 48/38/36 29/39/27 13/36/34
f 48/38/36 47/35/33 14/37/35 30/40/28
f 48/38/36 45/29/29 31/32/24 29/39/27
f 45/29/29 48/38/36 30/40/28 32/33/25
f 49/41/37 50/42/38 17/43/4 23/44/3
f 50/42/38 49/41/37 24/45/6 18/46/5
f 50/42/38 51/47/39 1/48/40 17/43/4
f 51/47/39 50/42/38 18/46/5 2/49/41
f 51/47/39 52/50/42 3/51/43 1/48/40
f 52/50/42 51/47/39 2/49/41 4/52/44
f 52/50/42 49/41/37 23/44/3 3/51/43
f 49/41/37 52/50/42 4/52/44 24/45/6
f 53/53/45 54/54/46 1/48/40 5/55/47
f 54/54/46 53/53/45 6/56/48 2/49/41
f 54/54/46 55/57/49 17/43/4 1/48/40
f 55/57/49 54/54/46 2/49/41 18/46/5
f 55/57/49 56/58/50 19/59/11 17/43/4
f 56/58/50 55/57/49 18/46/5 20/60/12
f 56/58/50 53/53/45 5/55/47 19/59/11
f 53/53/45 56/58/50 20/60/12 6/56/48
f 57/61/51 58/62/52 7/63/53 3/51/43
f 58/62/52 57/61/51 4/52/44 8/64/54
f 58/62/52 59/65/55 21/66/8 7/63/53
f 59/65/55 58/62/52 8/64/54 22/67/9
f 59/65/55 60/68/56 23/44/3 21/66/8
f 60/68/56 59/65/55 22/67/9 24/45/6
f 60/68/56 57/61/51 3/51/43 23/44/3
f 57/61/51 60/68/56 24/45/6 4/52/44
f 61/69/57 62/70/58 5/55/47 9/71/59
f 62/70/58 61/69/57 10/72/60 6/56/48
f 62/70/58 63/73/61 19/59/11 5/55/47
f 63/73/61 62/70/58 6/56/48 20/60/12
f 63/73/61 64/74/62 25/75/19 19/59/11
f 64/74/62 63/73/61 20/60/12 26/76/20
f 64/74/62 61/69/57 9/71/59 25/75/19
f 61/69/57 64/74/62 26/76/20 10/72/60
f 65/77/63 66/78/64 11/79/65 7/63/53
f 66/78/64 65/77/63 8/64/54 12/80/66
f 66/78/64 67/81/67 27/82/16 11/79/65
f 67/81/67 66/78/64 12/80/66 28/83/17
f 67/81/67 68/84/68 21/66/8 27/82/16
f 68/84/68 67/81/67 28/83/17 22/67/9
f 68/84/68 65/77/63 7/63/53 21/66/8
f 65/77/63 68/84/68 22/67/9 8/64/54
f 69/85/69 70/86/70 9/71/59 13/36/34
f 70/86/70 69/85/69 14/37/35 10/72/60
f 70/86/70 71/87/71 25/75/19 9/71/59
f 71/87/71 70/86/70 10/72/60 26/76/20
f 71/87/71 72/88/72 29/39/27 25/75/19
f 72/88/72 71/87/71 26/76/20 30/40/28
f 72/88/72 69/85/69 13/36/34 29/39/27
f 69/85/69 72/88/72 30/40/28 14/37/35
f 73/89/73 74/90/74 15/31/31 11/79/65
f 74/90/74 73/89/73 12/80/66 16/34/32
f 74/90/74 75/91/75 31/32/24 15/31/31
f 75/91/75 74/90/74 16/34/32 32/33/25
f 75/91/75 76/92/76 27/82/16 31/32/24
f 76/92/76 75/91/75 32/33/25 28/83/17
f 76/92/76 73/89/73 11/79/65 27/82/16
f 73/89/73 76/92/76 28/83/17 12/80/66
f 77/93/77 78/94/78 7/63/53 11/79/65
f 78/94/78 77/93/77 12/80/66 8/64/54
f 78/94/78 79/95/79 5/55/47 7/63/53
f 79/95/79 78/94/78 8/64/54 6/56/48
f 79/95/79 80/96/80 9/71/59 5/55/47
f 80/96/80 79/95/79 6/56/48 10/72/60
f 80/96/80 77/93/77 11/79/65 9/71/59
f 77/93/77 80/96/80 10/72/60 12/80/66
f 81/97/81 82/98/82 9/71/59 11/79/65
f 82/98/82 81/97/81 12/80/66 10/72/60
f 82/98/82 83/99/83 13/36/34 9/71/59
f 83/99/83 82/98/82 10/72/60 14/37/35
f 83/99/83 84/100/84 15/31/31 13/36/34
f 84/100/84 83/99/83 14/37/35 16/34/32
f 84/100/84 81/97/81 11/79/65 15/31/31
f 81/97/81 84/100/84 16/34/32 12/80/66
f 85/101/85 86/102/86 1/48/40 3/51/43
f 86/102/86 85/101/85 4/52/44 2/49/41
f 86/102/86 87/103/87 5/55/47 1/48/40
f 87/103/87 86/102/86 2/49/41 6/56/48
f 87/103/87 88/104/88 7/63/53 5/55/47
f 88/104/88 87/103/87 6/56/48 8/64/54
f 88/104/88 85/101/85 3/51/43 7/63/53
f 85/101/85 88/104/88 8/64/54 4/52/44
